<svg xmlns="http://www.w3.org/2000/svg" viewBox="0 0 800 400">
  <defs>
    <linearGradient id="grad1" x1="0%" y1="0%" x2="100%" y2="100%">
      <stop offset="0%" style="stop-color:#0A0E21;stop-opacity:1" />
      <stop offset="100%" style="stop-color:#3F3D56;stop-opacity:1" />
    </linearGradient>
    <linearGradient id="grad2" x1="0%" y1="0%" x2="100%" y2="0%">
      <stop offset="0%" style="stop-color:#4A90E2;stop-opacity:0.6" />
      <stop offset="100%" style="stop-color:#4A90E2;stop-opacity:0" />
    </linearGradient>
  </defs>
  
  <rect width="800" height="400" fill="url(#grad1)" />
  
  <!-- Abstract Dumbbell Shape -->
  <circle cx="700" cy="100" r="60" fill="none" stroke="#4A90E2" stroke-width="8" opacity="0.2" />
  <circle cx="700" cy="100" r="30" fill="#4A90E2" opacity="0.2" />
  <rect x="580" y="90" width="200" height="20" rx="10" fill="#4A90E2" opacity="0.2" />
  
  <!-- Dynamic Lines -->
  <path d="M0 300 Q 400 250 800 300" stroke="url(#grad2)" stroke-width="4" fill="none" />
  <path d="M0 320 Q 400 270 800 320" stroke="url(#grad2)" stroke-width="3" fill="none" />
  <path d="M0 340 Q 400 290 800 340" stroke="url(#grad2)" stroke-width="2" fill="none" />
  
  <!-- Abstract Fitness Icons -->
  <path d="M100 200 L 150 150 L 200 200 L 150 250 Z" fill="#4A90E2" opacity="0.3" />
  <circle cx="300" cy="180" r="40" fill="none" stroke="#4A90E2" stroke-width="8" opacity="0.3" />
  <rect x="380" y="150" width="60" height="60" rx="15" fill="#4A90E2" opacity="0.3" />
  
  <!-- Motivational Text (as path for better integration) -->
  <path d="M50 50 L70 50 L80 30 L90 70 L100 30 L110 70 L120 30 L130 50 L150 50" fill="none" stroke="#FFFFFF" stroke-width="2" opacity="0.5" />
</svg>
